<svg xmlns="http://www.w3.org/2000/svg" version="1.1" viewBox="-5.0 -10.0 110.0 135.0">
 <path d="m90.789 83.59c-0.15625 3.9766-1.8047 7.2734-4.7695 9.5273-4.2266 3.2148-10.789 4.0469-18.547 2.375l-0.95312 1.7969c-0.17969 0.33984-0.53516 0.55469-0.91797 0.55469l-29.055-0.003906c-0.24219 0-0.47656-0.085938-0.66406-0.24219-1.0977-0.91016-1.5352-2.2031-1.1914-3.5469 0.42969-1.7031 2.0078-3.1914 3.7578-3.543 0.0625-0.011718 0.12109-0.019531 0.17969-0.019531l2.7578-0.074219c-5.3203-4.1875-6.7656-7.75-7.293-10.945l-3.3633 17.527c-0.09375 0.49219-0.52344 0.84375-1.0234 0.84375h-11.906c-0.51172 0-0.94922-0.37109-1.0273-0.87891-0.23047-1.457 0.089843-2.8008 0.93359-3.875 0.84375-1.0859 2.1445-1.8086 3.7852-2.1172 0.65234-12.883-0.78125-20.887-4.8867-27.477-7.1797-11.531-9.0898-22.414-5.8281-33.262-2.0078-6.2695-2.1055-12.027-0.29688-17.129-0.45312-2.8906 0.41406-6.3828 2.5781-10.395 0.13672-0.24609 0.36328-0.42969 0.63281-0.50391 0.26953-0.078125 0.55859-0.042969 0.80078 0.097656 1.7422 0.99219 3.4805 3.1914 5.3008 6.7031 2.4375-0.35938 4.8359-0.26953 7.1445 0.26953 1.5195-2.2461 3.6016-3.9961 6.2031-5.2148 0.29297-0.13672 0.63281-0.12891 0.91797 0.019531s0.48828 0.42188 0.54297 0.74219c0.44922 2.5039 0.32422 5.3633-0.36328 8.5 1.5625 2.0078 2.4062 5.2422 2.1641 8.4414-0.26172 3.4492-1.7617 6.5547-4.2539 8.8281 2.7539 5.0859 5.6758 8.7773 10.562 10.324 11.082 3.5 18.676 9.1758 23.223 17.344 4.0156 7.2305 5.5781 16.371 4.7461 27.918 5.0781 1.2422 8.4883 0.96094 9.8789-0.82031 1.4609-1.8672 1.8008-6.6172-4.8633-18.66-5.9492-10.75-5.7812-20.055 0.5-27.641 1.8984-2.2891 4.6992-2.3711 6.3047-1.125 1.3398 1.0391 1.9375 3.1211 0.25391 5.4414-5.5234 7.6328-3.4727 11.758-0.078125 18.59 0.44922 0.90234 0.91406 1.8398 1.3867 2.832 0.91016 1.918 1.7383 3.5781 2.4609 5.0469 2.9648 5.9727 4.457 8.9766 4.2656 13.75z" fill-rule="evenodd"/>
</svg>