<svg xmlns="http://www.w3.org/2000/svg" version="1.1" viewBox="-5.0 -10.0 110.0 135.0">
 <path d="m10.203 20c-0.29297 0.011719-0.53125 0.10938-0.67578 0.33984-0.28516 0.64844 1.2969 1.8008 2.6445 2.6406l-0.67188 1.0469c-3.1289 2.4883-3.0547 4.8242-2.1016 7.1172-0.61328 2.7617-1.875 5.0234-3.3633 7.1094-1.4062 0.58203-1.043 1.5117-0.78906 2.4258 0.007812 1.3555 1.0547 1.7148 2.4766 1.7148 1.1055 0.82031 2.7852 0.625 5.0156-0.54688 1.6211-0.84766 3.1641-1.8828 5.0469-2.082 1.0859 1.1289 2.2383 1.668 3.3906 2.1875 0.98438 1.5859 2.3047 2.4961 2.9141 4.8203 0 0 0.16406 3.5664 1.043 5.043 0.90625 1.5195 2.2383 2.7422 3.9844 3.9922 1.375 0.98047 1.0469 1.9609 3.2148 2.1953-0.089843 0.93359-0.16016 1.8828-0.18359 2.8555-0.019532 0.91797 0.51953 1.9609 0.59375 2.9375 0.085937 1.1172-0.26953 2.1758-0.007813 3.3984 0 0-2.7891 6.6445-4.293 9.707-0.44531 0.90625-1.0078 1.7656-1.6875 2.5156-0.16016 0.17578-0.41016 0.38672-0.65234 0.58203h6.1172c1.5898-0.60156 0.98828-1.8711 1.25-2.8789 0 0 0.47656 0.23047 0.66406 0.10938 0.81641-0.53906 0.69531-2.8438 0.69531-2.8438l2.6836-7.793 1.1367 2.0625s0.51562 4.6914-0.12109 6.9062c-0.38672 1.3398-1.6602 3.25-2.5156 4.4375h6.7852c0.33984-0.29297 0.64453-0.61719 0.76172-0.92969 0.29297-0.75781-0.25781-2.4258-0.25781-2.4258s1 0.36719 1.082 0.019531c0.13281-0.57422-1.4609-5.2383-1.707-8.0078-0.19141-2.1602 0.21875-4.1211 0.25391-6.3516 0.035156-2.1328-0.30469-4.5391-0.30469-6.6562 0 0 2.1172 0 3.1719 0.089843 5.8164 0.51953 8.2695 2.6016 17.324 2.6016 5-0.44922 9.3281-2.6328 14.324-2.5195 0 0 2.0156 2.2578 2.4922 3.6484 0.85938 2.5 0.48047 7.9141 0.48047 7.9141-0.51172 3.5859-1.9102 6.6133-3.4883 9.5234l-1.6875 2.5156-0.71484 0.58203h5.1133l1.25-2.8789s0.48438 0.24219 0.66406 0.10938c0.62109-0.46484 0.28125-2.3008 0.28125-2.3008l4.0469-11.086c1.0586 2.3008 1.1445 5.4531 1.4727 8.3906 0 0-0.96484 4.1797-1.8359 6.1289-0.20703 0.46094-0.58594 1.0938-0.93359 1.6367h4.8516l0.5625-3.0234s0.71484 0.097656 0.89062-0.14453c0.46484-0.64063-0.375-2.3398-0.375-2.3398-0.070313-4.2617 1.0898-8.1484 0.85547-13.016-0.1875-3.5039-1.582-6.8672-1.8164-10.367-0.19531-2.8867-0.097657-5.8164 0.33594-8.6758 0.40234-2.6523 1.9727-5.0938 2.0938-7.7734 0.058594-1.2695-0.66016-3.7617-0.66016-3.7617s1.7578 0.83594 1.7578 1.6328c0.003907 4.3672-4.8477 14.508-2.0078 20.531 1.6797 3.5703 2.3945 6.8516 2.2148 10.941 3.0664-4.7422 1.1055-7.3555-1.2617-11.598-1.4609-5.5195 1.1562-12.879 2.7891-19.102 0.24609-0.9375 0.33984-2.3984-0.12109-3.4531-0.71875-1.6484-2.7578-3.5938-4.4375-4.9961-1.0859-0.69141-2.1289-1.1875-3.1484-1.543-1.0703-0.37891-2.2734 0.17188-3.3242 0.027344-1.2891-0.17578-2.4336-1.0039-3.7969-1.0664-2.6445-0.12109-4.543 1.2148-7.0625 1.7891-4.4688 1.0195-9.5586 1.625-14.711 1.625-6.7656 0-12.074-1.75-19.777-1.75-1.6328 0-3.5391 0.6875-5.168 0.78516-3.9883 0.039063-6.5352-0.039062-10.137-0.42578 0 0-0.50391-3.5625-1.9102-3.8477-0.074218-0.015625-0.15234-0.019531-0.22656-0.011719-1.1367 0.085938-2.4961 2.3477-2.4961 2.3477s-0.17578-1.4023-0.85547-1.7734c-0.44922-0.24219-1.4844-0.054687-2.0156-0.078125-0.54297-0.023438-1.0781-0.35938-1.5664-0.18359-0.32422 0.11328-0.73828 0.57031-0.92969 0.80078-0.96094-0.21094-2.4531-0.92578-2.9062-1.5469z"/>
</svg>