<svg xmlns="http://www.w3.org/2000/svg" version="1.1" viewBox="-5.0 -10.0 110.0 135.0">
 <path d="m98.105 70.336c-3.7695-4.4023-2.3672-11.375-2.8281-16.703-0.097656-2.2539-0.30469-4.5234-0.84375-6.7109-0.35156-1.957-1.8125-3.9258-1.3516-5.9336 0.21484-0.87891 0.85156-1.6641 1.5586-2.4688 1.3516-1.5234 2.5234-3.3125 3.4023-5.1641 2.7148-5.6055 1.6953-12.965-2.9766-17.277-4.3594-4.4414-13.672-4.2617-16.09 2.1211-0.47656 0.98438-0.55078 3.8281 1.2031 2.3281 0.51562-0.44922 1.0664-1.2227 1.5898-1.7773 1.6562-1.8203 4.4102-2.4258 6.8008-1.9492 7.7617 1.8516 8.3359 10.785 3.8125 16.293-1.418 1.8438-3 4.0977-5.4414 3.0977-6.3672-3.1875-13.762-2.1797-20.621-1.7773-9.9922 0.83594-21.629 0.93359-29.055-6.875-1.6562-1.5156-3.1328-3.1719-4.5898-4.9492-1.4023-1.6719-2.7617-3.2305-3.4492-5.2031-0.85937-1.8438-1.8047-9.0469-4.7383-7.2109-1.2969 0.79688-1.7461 4.5156-3.5586 4.0664-1.668-0.67188-3.1953-5.418-5.3555-5.2227-2.2148 1.3945-1.0234 5.2773-1.918 7.3008-0.64844 1.7539-2.4922 2.5977-3.5156 4.0977-0.87891 1.1875-1.1484 2.7227-1.9766 3.9336-3.7539 4.3945-11.457 1.9336-6.6133 10.629 1.7305 3.918 5.3672 6.0078 9.6133 5.5234 1.8203-0.10547 3.875-0.94141 5.4648-0.41016 1.2969 0.40234 2.0664 1.6211 2.8203 2.6797 1.6484 2.1797 3.1953 4.1484 3.4414 6.8516 0.3125 2.8594 1.4766 5.5078 2.0508 8.293 0.40234 2.6328 0.039063 5.3359-0.082031 7.9766-0.47656 4.6953-0.097656 9.6367-1.0977 14.238-0.60547 1.6211-2.5 2.0508-3.5391 3.3438-3.1719 5.1484 4.9102 5.7109 7.7461 3.293 4.0391-3.2852 3.7461-11.664 4.9492-16.613 0.27734-1.4492 0.41016-3.0586 0.80469-4.4688 0.73828-2.0508 0.94922 1.4336 0.90234 2.0898-0.03125 3.9258 0.22266 7.793 0.22266 11.68-0.007812 1.4844 0.17188 3.1797-0.91016 4.3438-1.4688 1.3438-3.8672 2.8594-2.957 5.2852 1.1406 2.9258 6.2773 1.8945 8.3008 0.49219 4.6055-3.5391 3.3203-14.383 4.1055-19.98 0.15625-5.8438 4.5312-1.6719 13.582-5.9258 4.375-1.7617 8.418-4.418 13.055-5.293 3.0391-0.41797 3.3672 3.1562 4.0234 5.3516 0.8125 2.9336 1.8867 5.8672 3.6289 8.375 1.7695 2.5586 5.4492 6.2539 2.3438 9.1641-6.8359 4.7852 0.37891 7.8008 5.1719 4.9688 2.3438-1.6641 2.7383-4.957 2.8438-7.7109 0.15625-1.8672-0.51562-4.5234-1.0078-6.0742-0.082032-0.37891-0.03125-0.52344 0.20312-0.39453 1.5742 1.3945 3.4688 3.2539 4.6133 5.1055 0.97656 1.8945 1.3672 4.6406 0.13281 6.3945-0.8125 1.0977-2.2617 1.7969-2.6641 3.1719-0.96875 4.582 6.3203 4.3438 8.5234 2 2.4258-2.5898 1.9492-6.5 2.0742-9.8828 0-2.9336 0.6875-6.2695-1.7539-8.4648l-0.050781-0.050781z"/>
</svg>