<svg xmlns="http://www.w3.org/2000/svg" version="1.1" viewBox="-5.0 -10.0 110.0 135.0">
 <path d="m80.273 35.797-4.4414-4.0391c0.10938-1.9609-0.91016-3.8164-2.625-4.7773-0.42188-4.8594-2.9453-7.7383-7.7422-8.4805 2.4688 2.0781 3.9531 4.4883 4.375 7.2695l-1.2773 0.33594c-2.8242-6.4141-7.543-8.8008-14.27-6.9336 5.5469 1.4062 9.2188 4.1953 10.77 8.5469l-1.3125 0.875c-1.8711-1.8945-4.3555-2.6641-7.5703-2.0859 0.70312 3.957 3.1367 5.6562 6.4609 6.1914-1.6445 5.125-4.9492 6.9805-9.2891 6.8008-7.2617 0-20.258-4.6523-26.586 2.2227-3.1914-0.34375-5.5312-2.1406-7.0664-5.3164-1.9219 5.6992-0.35938 8.8633 4.5078 9.625v-0.003906c-1.0703 3.8516-0.48438 7.9766 1.6133 11.375 1.3242 2.4727 0.76563 5.0547-1.4883 7.1016-0.64062 0.55859-0.94922 1.4102-0.81641 2.25 0.72266 4.0938 1.3203 7.9922 1.1641 10.734-0.027344 0.47656 0.25391 0.91406 0.69922 1.0859 0.35938 0.14453 0.61719 0.46484 0.68359 0.84766l0.36328 2.0781h4.1797c0.25391 0 0.49219-0.11719 0.64453-0.32031 0.15625-0.19922 0.20703-0.46094 0.13672-0.70703-0.71484-2.5781-3.6445-5.8477-3.4805-8.668 0.066406-2.3047 0.39844-4.0859 1.75-4.3086v0.003906c1.3906 3.4258 2.4766 6.9648 3.2461 10.582 0.10547 0.59766 0.625 1.0352 1.2344 1.0352 0.46094 0 0.88281 0.25391 1.1055 0.65625l0.94531 1.7266h3.0391c0.25781 0 0.5-0.12109 0.65234-0.32812s0.19922-0.47266 0.125-0.71875c-0.63672-2.1484-3.0859-3.6836-4.2891-5.8203-1.5625-2.6758-2-6.2109-1.8828-10.164v0.003906c1.332-0.70703 2.3281-1.9219 2.7578-3.3672 5.9297 1.1914 12.027 1.2344 17.973 0.13281 0.57812 6.4688 1.1016 12.797 0.57422 16.703-0.023438 0.17188 0.023437 0.34375 0.12891 0.47656 0.10938 0.13281 0.26562 0.21484 0.4375 0.22656h0.011719c0.30078 0.015625 0.54688 0.25391 0.57031 0.55859l0.17969 2.2969h4.0977c0.25781 0 0.49609-0.125 0.64844-0.33203 0.15625-0.20703 0.19922-0.47266 0.125-0.71875-0.17578-0.55469-0.41406-1.0898-0.70703-1.5898-1.3398-2.4648-1.9766-5.25-1.8398-8.0547 0.14063-3.2227 0.59766-6.4258 1.3594-9.5625l2.9648 15.91c0.074219 0.41406 0.4375 0.71484 0.85938 0.71484 0.37109 0 0.69922 0.23047 0.82422 0.58203l1.0742 3.0508h4.8125c0.34766 0 0.66406-0.19922 0.82031-0.51172 0.15234-0.3125 0.11719-0.6875-0.09375-0.96484-1.2422-1.6602-3.2383-2.5625-4.5312-4.3828-1.8164-2.6016-1.6875-9.9336-1.5469-17.297 4.6602-5.8516 2.2891-13.93 6.1914-18.844l1.6836 0.67188c-0.90625 2.7656 0.17969 4.6406 2.8945 5.7891-0.62891-1.8516-0.68359-3.5977 0.47266-5.1172 3.1875 1.3984 5.9727-2.7734 3.6992-5.0469z"/>
</svg>