<svg xmlns="http://www.w3.org/2000/svg" data-name="Layer 1" viewBox="0 0 64 80" x="0px" y="0px"><path d="M59.47324,24.532c-.1742-.26374-.43892-.50218-.436-.84378a18.33921,18.33921,0,0,0-.33576-2.2783,4.6218,4.6218,0,0,0,3.77511-2.26954,5.00465,5.00465,0,0,0,.51775-3.61842,6.75958,6.75958,0,0,0-2.52842-3.94639,7.59324,7.59324,0,0,0-4.12936-1.55034A11.24337,11.24337,0,0,0,53.7517,3.79179a1.50388,1.50388,0,0,0-1.22138-.80387,1.07559,1.07559,0,0,0-1.03746,1.236,15.61982,15.61982,0,0,0-3.17365-2.50506A12.63962,12.63962,0,0,0,46.26085.68626a1.047,1.047,0,0,0-1.31676.80582,1.11135,1.11135,0,0,0,.70656,1.25448,9.88664,9.88664,0,0,1,3.59214,2.71332,7.4341,7.4341,0,0,1,1.76833,4.1459A13.2732,13.2732,0,0,0,49.7002,7.92991a13.42416,13.42416,0,0,0-4.941-3.72158,11.7721,11.7721,0,0,0-5.75074-.75717,22.40792,22.40792,0,0,0-5.7303,1.29535,2.49408,2.49408,0,0,0-1.19024.6287,1.0682,1.0682,0,0,0,.34354,1.62819,1.22,1.22,0,0,0,1.02967-.04379,24.0557,24.0557,0,0,1,4.42424-1.14742,12.5993,12.5993,0,0,1,5.02374.01849,9.45776,9.45776,0,0,1,4.24809,2.582,21.88749,21.88749,0,0,1,2.93717,3.8987A28.864,28.864,0,0,1,54.07,23.85368a7.04372,7.04372,0,0,1,1.88608.69974,7.74624,7.74624,0,0,1,3.08316,3.27585c-.36788-.06034-.73381-.12749-1.0939-.219a13.55291,13.55291,0,0,1,2.51284,5.20477c-.55473-.20048-1.14352-.26958-1.7041-.44476a11.31637,11.31637,0,0,1,1.2175,4.26074,7.6405,7.6405,0,0,1-1.49194,3.416c-.24623.31046-.64135.49926-.79512.87979a.87905.87905,0,0,0,.06812.5849,28.84768,28.84768,0,0,1-1.93573,3.07634,21.543,21.543,0,0,1-7.39644,6.13808,42.73563,42.73563,0,0,1-9.68156,3.66027,46.25176,46.25176,0,0,0,3.13668-6.178,6.59331,6.59331,0,0,0-4.50891,4.74638,7.772,7.772,0,0,1-.59951-8.16919,7.14068,7.14068,0,0,0-3.089,2.08853A6.86946,6.86946,0,0,0,32.012,51.15241,9.71973,9.71973,0,0,1,30.266,44.809a11.03129,11.03129,0,0,1,1.55033-4.68214,8.77245,8.77245,0,0,0-5.89574,7.30594,13.16664,13.16664,0,0,1-.725-3.01211,11.61041,11.61041,0,0,1,3.7099-9.61441,10.377,10.377,0,0,0-3.31283.6978,9.88742,9.88742,0,0,0-4.14882,3.06563,12.46832,12.46832,0,0,1,2.6199-4.905,16.77264,16.77264,0,0,1,4.58871-3.58728A15.153,15.153,0,0,0,35.973,19.55887a12.82315,12.82315,0,0,1-4.1498,3.10067,5.45782,5.45782,0,0,1-2.45347.54306,3.35791,3.35791,0,0,1-2.96345-2.182,5.4441,5.4441,0,0,1-.18783-2.88851,10.82936,10.82936,0,0,1,2.20823-5.02958,8.48725,8.48725,0,0,1,5.21254-2.96345c.39416-.0545.91678-.16934,1.18635.216a.62508.62508,0,0,1-.3922.98782A7.45082,7.45082,0,0,0,29.252,14.2276a9.73634,9.73634,0,0,0-1.74888,4.46024,3.76869,3.76869,0,0,0,.14015,1.86372,1.95971,1.95971,0,0,0,1.61457,1.24669,4.95,4.95,0,0,0,2.78242-.80486,12.15748,12.15748,0,0,0,3.87437-3.61258c.21606-.31727.38637-.81458.85254-.79511a.61259.61259,0,0,1,.6433.57906,14.98688,14.98688,0,0,1-1.42382,7.00035,32.34282,32.34282,0,0,1-5.60085,8.14,9.22421,9.22421,0,0,1,6.49135-1.64863,12.52912,12.52912,0,0,0-4.87971,5.56971,9.94979,9.94979,0,0,1,7.41493-.65594,11.29611,11.29611,0,0,0-4.31523,5.159,9.06574,9.06574,0,0,1,5.92883-2.09242c.4214-.4506.76008-.97905,1.13866-1.46761,1.20971-1.61943,2.43207-3.22816,3.64664-4.84273-1.1698.08954-2.33766.19562-3.50747.292q2.49047-2.84813,5.09285-5.595a14.01309,14.01309,0,0,1-3.54056.61994,12.80348,12.80348,0,0,1,5.9298-3.77122,23.90677,23.90677,0,0,0-1.77417-6.74439,16.82093,16.82093,0,0,0-6.04465-7.487,11.81731,11.81731,0,0,0-11.12776-.93136,11.12676,11.12676,0,0,0-4.82812,4.11865A13.83447,13.83447,0,0,0,23.95862,18.717,28.18259,28.18259,0,0,0,12.98852,21.627a21.84911,21.84911,0,0,0-9.18814,8.79982A23.41453,23.41453,0,0,0,.89825,42.76036,32.33307,32.33307,0,0,0,3.72642,54.11585c.19367.42335.3124.9557.76592,1.18246a1.07988,1.07988,0,0,0,1.50848-.49342c.292-.582-.12846-1.16494-.31532-1.706a16.77744,16.77744,0,0,1-.60631-1.7333,8.07182,8.07182,0,0,1,2.21893,2.46321c.6832.93235,1.345,1.88123,2.05057,2.798a3.78619,3.78619,0,0,0-1.198,2.68608A2.46371,2.46371,0,0,0,9.47813,61.523l-.01557.08662c.05547-.0107.16544-.03212.22092-.04379l-.04866.12067a2.429,2.429,0,0,1,.64135.08468c2.27051.02238,4.541-.01071,6.81057.01848L17.04,61.70208c.24622-.001.49244-.01752.73866-.02142l-.05352-.1304c.04379.01362.13235.04087.17615.05352q.1416-.10948.28613-.21313c.036.00876.109.0253.145.03406l-.01557-.08564a2.10468,2.10468,0,0,0,.62383-.61994l.05743.00389a1.64344,1.64344,0,0,1,.3085-.61994l-.0545-.1635.13528.03017c-.00778-.31532.035-.62967.02044-.944a4.26237,4.26237,0,0,0-.34841-1.199c1.09876.22189,2.19654.45546,3.307.61312a6.34516,6.34516,0,0,0,1.13088.146l-.0399.08175c.27833-.00487.55667.00875.836.00292l-.073.09245c.41265-.01654.82626.02142,1.23988.00779l-.071.09148c.508-.00876,1.016-.00681,1.524.02433-.0068.04574-.0214.13722-.02822.18394l.09441.00584c.00389.09732.00778.19561.01264.29488l-.11581-.01849.04672.20341-.11-.02336a.77421.77421,0,0,1-.07981.33965c-.02919.1051-.06423.20924-.10413.3124A8.66188,8.66188,0,0,0,26.6009,61.524l.08662-.0438c.00584.08857.01752.26472.02433.35328l.1382-.0399c-.02044.038-.06132.11484-.08175.15377a.596.596,0,0,1,.23649.328,6.52653,6.52653,0,0,0,.689.67347c.26374.08272.472.32018.76786.29683l-.05644.09148c1.36055.03212,2.72209.00779,4.08264.01654,1.55131-.00681,3.10358.02823,4.65587-.01167l-.04477-.14209.17032.07007a1.45982,1.45982,0,0,1,.63161-.32311l-.037-.0944.09342.01849a2.796,2.796,0,0,0,.53722-.60242l.06131.02433c-.00291-.22968.24428-.36788.21119-.60437l.06521.0438a1.36153,1.36153,0,0,1,.09829-.41848c.035-.36594.00779-.73284.02628-1.0978l-.10121.03407c-.001-.0837-.001-.24914-.00195-.33187l-.09635.02238c.001-.074.00292-.22091.00487-.29488l-.11873.00584c.00584-.05353.01849-.16058.02433-.21411l-.13333.01654c.01265-.05157.037-.15571.04963-.20729l-.1489.02725c.01168-.04574.036-.13819.04768-.18491-.19561-.01655-.23551-.24525-.363-.3562a6.55482,6.55482,0,0,0-1.381-1.18148,3.10415,3.10415,0,0,1,.16058-.53722c.43406-.14209.89536-.17226,1.33817-.28223a40.69485,40.69485,0,0,0,5.64953-1.58829c.7192.59561,1.41213,1.22722,2.17708,1.76444a3.76423,3.76423,0,0,0-.89049,2.25981l-.074-.03017c0,.11289.001.33771.001.44963l.0798-.05353a7.16056,7.16056,0,0,0,.12165.82042l.07981-.04087c.04087.28515.29683.46227.4214.70753l.0798-.02142-.02919.11874.11873-.01849-.01265.08272a.31478.31478,0,0,1,.23065.19075,3.9325,3.9325,0,0,0,.38734.12944l-.0652.08564.3416.00778-.04283.09149c.17713-.001.35717.00584.53625.01071l-.05256.08661c2.18585-.00681,4.37266-.01752,6.55948.00681l-.01362-.09537c.17712,0,.3523-.00779.53137-.0039l-.05839-.0944c.0837-.001.25206-.00389.33576-.00486l-.03893-.07592A2.49049,2.49049,0,0,0,55.92879,59.778a2.92364,2.92364,0,0,0-.22287-1.6934,4.78765,4.78765,0,0,0-2.434-2.4525c.48758-2.13719.88757-4.29384,1.35666-6.43491.0292-.16059.17129-.25791.27931-.36593a21.1192,21.1192,0,0,0,4.87387-6.69184,6.17814,6.17814,0,0,1,.873-1.37711,12.68966,12.68966,0,0,0,1.63208-4.47387,15.11766,15.11766,0,0,0-.49537-7.15412A16.71608,16.71608,0,0,0,59.47324,24.532Zm-.907-5.46753a.45753.45753,0,0,1-.38247-.7231c.5703-.764,1.17467-1.50265,1.76347-2.252a3.79553,3.79553,0,0,0-.96057-1.57954,7.02112,7.02112,0,0,0-2.51674-1.66225,5.1371,5.1371,0,0,0,.12555-.68709,5.31684,5.31684,0,0,1,4.35709,4.24225c-.50218.765-1.12212,1.44328-1.67588,2.17027C59.08979,18.78809,58.88931,19.08687,58.5662,19.06448ZM39.22255,21.34667A3.1066,3.1066,0,0,1,41.18747,19.081a2.66737,2.66737,0,0,1,2.509.41459,3.31727,3.31727,0,0,1,1.21263,3.22718A3.23974,3.23974,0,0,1,43.72562,24.715a2.6752,2.6752,0,0,1-2.7649.31922A3.31915,3.31915,0,0,1,39.22255,21.34667ZM10.32,59.489a2.33231,2.33231,0,0,1,1.32844-1.97271,5.30993,5.30993,0,0,1,3.60383-.30753A2.46371,2.46371,0,0,1,17.188,59.47827C14.899,59.49,12.609,59.46465,10.32,59.489Zm4.12158-5.6865a11.82741,11.82741,0,0,1-4.57607-3.94542,15.28462,15.28462,0,0,0,7.78573,3.03059A22.63778,22.63778,0,0,1,15.553,47.15638a14.67235,14.67235,0,0,1-.04574-6.03,18.39665,18.39665,0,0,1,.46714-1.816,17.11856,17.11856,0,0,0,1.19608,4.58093,42.03432,42.03432,0,0,0,5.39163,8.69958c1.01506,1.3372,2.06808,2.64521,3.11915,3.95418A28.6487,28.6487,0,0,1,14.44154,53.80248Zm22.35089,7.30009c-2.68608.01363-5.37216-.00875-8.05726.01363A2.45868,2.45868,0,0,1,30.012,59.269a6.2158,6.2158,0,0,1,3.84907-.51776A4.17712,4.17712,0,0,1,36.19974,59.887,2.15146,2.15146,0,0,1,36.79243,61.10257Zm17.00014-1.62526c-2.142.00389-4.2841.001-6.42517.00681a2.10321,2.10321,0,0,1,.78247-1.54353,3.88928,3.88928,0,0,1,3.95807-.52359A2.64675,2.64675,0,0,1,53.79257,59.47731Z"/><path d="M41.05511,23.68142a1.52086,1.52086,0,0,0,1.97467.04769,2.18,2.18,0,0,0,.41264-2.81552,1.59235,1.59235,0,0,0-1.67-.7669,1.75009,1.75009,0,0,0-.70752.35231A2.18662,2.18662,0,0,0,41.05511,23.68142Z"/><path d="M54.43587,30.529c.31922-.12846.68223-.02141,1.00144-.15669a1.16113,1.16113,0,0,0,.65984-1.49486,1.26724,1.26724,0,0,0-1.65154-.74159c-.33869.08078-.50608.399-.72992.62773a2.8355,2.8355,0,0,1-2.24034-.01071,1.36794,1.36794,0,0,0-1.61749-.6141,1.15834,1.15834,0,0,0-.79025,1.10168,1.13793,1.13793,0,0,0,.70947,1.10363c.39415.17518.86324-.03114,1.23891.20925a2.26414,2.26414,0,0,1,.98879,2.09435,5.51239,5.51239,0,0,1-.30267,2.47c-.14793.363-.67444.42043-.72894.835a.93974.93974,0,0,0,.75521,1.00241,3.50067,3.50067,0,0,0,1.60678-.00389,1.00978,1.00978,0,0,0,.79318-1.09876c-.13431-.31922-.54014-.42822-.65887-.762a5.40036,5.40036,0,0,1-.22287-1.76152,4.7701,4.7701,0,0,1,.23747-1.86761A1.71769,1.71769,0,0,1,54.43587,30.529Z"/></svg>