<svg xmlns="http://www.w3.org/2000/svg" version="1.1" viewBox="-5.0 -10.0 110.0 135.0">
 <path d="m64.602 16.105c-0.17578 0.003906-0.32812 0.125-0.36719 0.29688 0 0-0.79297 3.5234-0.27344 8.5156-3.168-2.7031-7.0977-4.6992-11.695-5.1562v0.003906c-0.10547-0.011719-0.20703 0.023437-0.28906 0.089844-0.078124 0.070312-0.12891 0.16797-0.13281 0.27344 0 0-0.15234 3.3867 1.5859 7.832 1.6914 4.332 5.1992 9.6914 12.344 13.98-1.0234 0.68359-3.1758 2.4258-4.2773 5.5703-0.19141 0.54688-0.40625 0.71875-0.81641 0.76953-0.41406 0.050781-1.082-0.10938-1.9688-0.50391-1.7773-0.78516-4.4141-2.4375-8.0508-4.5391-6.5312-3.7695-17.809-4.9766-26.102 3.3164-3.0625 3.0625-5.1289 5.707-6.2852 9.0859-1.0898 3.1875-1.3555 7.0195-0.95703 12.422-0.375-0.24609-0.8125-0.46875-1.2539-0.73828-0.80859-0.49219-1.6055-1.0781-1.9805-1.8242l-0.003906-0.003906c-0.0625-0.12109-0.18359-0.19922-0.32031-0.20703-0.13281-0.011718-0.26562 0.054688-0.33984 0.16797 0 0-0.99609 1.4766-1.3984 3.625-0.40234 2.1484-0.19922 5.0156 2.1445 7.7227 1.2383 1.4297 2.6094 2.0273 3.9609 2.3438 1.1797 0.27734 2.3359 0.35937 3.4453 0.625-0.42969 0.61719-1.1914 1.5273-1.0625 3.7617l-0.003906-0.003906c0.011719 0.20312 0.17969 0.36328 0.38672 0.36328h34.996c0.21094 0 0.38281-0.17188 0.38281-0.38672 0-1.3008-0.91016-2.3008-2.207-3.0078-0.67969-0.37109-1.4805-0.67578-2.3516-0.93359 3.2227-0.30469 6.4414-0.98828 9.0508-2.3594 0.19922 1.1016 0.73438 2.418 1.2891 3.6055 0.32812 0.69922 0.66406 1.3516 0.94531 1.8633s0.49609 0.87109 0.63672 1.0625c0.074219 0.097657 0.1875 0.15625 0.3125 0.15625h14.965-0.003906c0.11328 0 0.22266-0.050781 0.29688-0.13672 0.070313-0.085937 0.10156-0.20312 0.082031-0.31641-0.26562-1.5273-1.0273-2.6562-2-3.4453-0.97266-0.79297-2.1445-1.2578-3.2656-1.5352-1.7148-0.42578-3.3242-0.41797-4.0039-0.39063-0.78516-3.9258 0.19922-8.9414 1.4336-12.996 1.125-3.6992 2.3711-6.4609 2.6484-7.0586 0.36328 0.042969 1.7227 0.20312 3.6055 0.30078 2.1484 0.10938 4.6992 0.12109 6.4336-0.34375 1.0664-0.28516 3.0273-1.1562 3.7539-3.0703 0.36328-0.95703 0.38281-2.1562-0.17578-3.5742-0.55859-1.4141-1.6797-3.0586-3.6094-4.9883 0-0.003906-0.11328-0.14062-0.24219-0.32031-0.13281-0.17969-0.30078-0.42188-0.50391-0.70703-0.41016-0.56641-0.95703-1.3047-1.625-2.0898-1.2891-1.5195-3.0078-3.2148-5.043-4.2227-0.20312-3.5898-1.6367-15.348-11.848-22.832l-0.003906 0.011719c-0.070313-0.050782-0.15234-0.078126-0.23828-0.074219z"/>
</svg>