<svg xmlns="http://www.w3.org/2000/svg" version="1.1" viewBox="-5.0 -10.0 110.0 135.0">
 <path d="m46.609 54.629c0.14844-0.058594 13.859-5.8516 19.07-15.781-5.0117-6.7617-13.57-10.969-22.91-10.969-15.121 0-27.43 10.91-27.43 24.32 0 1.5586 0.17188 3.1016 0.51172 4.6094 6.8672 0.97266 20.098 1.9922 30.758-2.1797z"/>
 <path d="m85.949 31.488c-0.12891 0-0.23047 0.10156-0.23047 0.23047 0 0.26172 0.46094 0.26172 0.46094 0 0-0.11719-0.10938-0.23047-0.23047-0.23047z"/>
 <path d="m83.148 21.02c-0.96875-0.019531-9.957 0.14062-12.848 13.992-0.25 0.51953-1.0781 2.1484-2.6016 4.3086-5.3086 10.84-19.641 16.879-20.34 17.168-6.3281 2.4688-13.391 3.2188-19.602 3.2188-4.8008 0-9.0781-0.44141-12.16-0.87891l-6.0391 6.0391c-0.41016 0.41016-0.55078 1.0312-0.35156 1.5781 0.19922 0.55078 0.69922 0.92969 1.2891 0.98047l9.4492 0.76953-1.4883 7.4414c-0.089843 0.44141 0.03125 0.89844 0.30859 1.25 0.28906 0.35156 0.71094 0.55078 1.1602 0.55078h11.129c0.75 0 1.3789-0.55078 1.4805-1.2891l0.89062-6.2188c3.9805 1.0898 14.129 3.2188 24.059-0.058594l2.8516 6.6602c0.23828 0.55078 0.78125 0.91016 1.3789 0.91016h12.488c0.51953 0 1-0.26953 1.2695-0.71094 0.26953-0.44141 0.30078-0.98828 0.070313-1.4492-2.6016-5.3008-5.8984-13.879-5.1602-16.539 0.41016-0.92188 4.3984-9.6211 9.5898-13.859 2.0117 0.55078 6.0586 1.5312 7.8203 0.96094 5.7109-1.8594 8.9609-7.8906 7.7109-14.34-1.2227-6.5234-6.0625-10.625-12.355-10.484zm2.8008 13.941c-1.7812 0-3.2305-1.4492-3.2305-3.2305s1.4492-3.2305 3.2305-3.2305 3.2305 1.4492 3.2305 3.2305-1.4492 3.2305-3.2305 3.2305z"/>
</svg>