<svg xmlns="http://www.w3.org/2000/svg" version="1.1" viewBox="-5.0 -10.0 110.0 135.0">
 <path d="m68.727 73.582s-21.906-5.9688-29.07-26.223c-7.1641-20.25 5.7852-16.945 5.7852-16.945s-11.09-1.6523-4.4766 16.602c6.6133 18.254 27.691 25.555 27.691 25.555s-1.375-12.949-8.2656-24.039c0 0-3.2383-10.195-8.6094-15.98-5.3711-5.7852-5.7852-8.1289-3.5117-10.676 0 0-10.469 3.4453-14.535-2.0664 0 0 4.8906 4.6133 15.359 0.96484 0 0 2.3438-1.9297 2.6172-4.2031 0 0 9.125-2.375 8.7266-2.7109-1.6562-1.375-8.1523-2.7578-8.1523-2.7578s0.13672-5.6719-10.793-6.2695c-10.93-0.59375-15.777 10.465-17.129 19.383-0.62109 4.0977-0.85156 6.918-2.6641 7.9922-1.2266 0.72656-13.594 15.43 16.785 37.68 0 0 0.25391-0.23047 0.27344-1.0312 0 0 2.2031 1.4453 1.6758 3.2148-0.52734 1.7656-5.8555 6.2188-6.1758 6.6562-0.32031 0.4375-2.2969 0.57422-2.5938 1.4453-0.22656 0.65625-1.7266-0.39062-3.75 1.0781-4.9023 0.46094-9.7344 1.3203-9.7344 1.3203l0.75 3.8203c6.5195 0.50781 5.4336-0.91016 12.965-1.7852s11.391 2.8008 13.73 3.9023c2.3438 1.1016 5.9219 2.3438 8.2656 1.1953s5.3281-1.8828 5.3281-1.8828v-1.4219c-2.1133-0.32031-4.6367 1.1484-6.1523 1.6992-1.5156 0.55078-4.4531-1.6992-4.4531-1.6992l4.4531-2.6172-1.6055-1.0547s-5.2812 1.8828-5.6016 1.8828c-0.15234 0-0.60156-0.45312-1.0352-0.92969 0.015625-0.40625-0.050781-1.1562-0.73438-1.3203-0.94141-0.23047-0.34375-1.5898-0.046875-2.1133 0.52344-0.91797 4.25-5.1406 4.25-5.1406s2.043-0.66797 2.7109-1.6094c0 0 1.7891-0.32031 2.8242-2.6406l1.4453 1.3984 0.50391-0.55078s1.7891 1.2383 2.5703 1.7891c0.78125 0.55078 3.0781 2.5234 3.3516 3.582 0.27344 1.0586 9.4141 15.984 9.4141 15.984s2.5703 3.8555 6.7031 1.1953l-3.0312-4.1328 3.582 3.582s2.3906-0.09375 3.3984-1.1016c1.0117-1.0156-13.039-19.02-13.039-19.02zm-23.789-65.207c1.5 0 2.7188 0.98438 2.7188 2.2031s-1.2188 2.2031-2.7188 2.2031c-1.5039 0-2.7227-0.98828-2.7227-2.2031 0.003906-1.2188 1.2227-2.2031 2.7227-2.2031zm1.3555 66.426c-1.1484 1.0078-5.6484 6.2891-5.6484 6.2891s-1.3281-0.007813-2.0078 0.51562c-0.11719-0.019531-0.23828-0.039063-0.35938-0.0625-0.015625-0.32031-0.16406-1.2188-1.4688-1.2344-1.5859-0.023438 0.23047-1.1719 0.23047-1.1719s3.1914-3.8125 5.2109-4.7539c2.0195-0.94141 2-1.3789 2.1133-2.1562 0 0 0.36719 0.29688 0.27734 0.66797 0 0 0.66406-0.23047 0.4375-1.4688-0.23047-1.2422 0.046875-1.6523 0.046875-1.6523s0.94141 1.332 1.6289 1.6797c0.6875 0.33984 0.6875 2.3359-0.46094 3.3477z"/>
 <path d="m44.938 12.266c1.1484 0 2.082-0.75781 2.082-1.6875s-0.93359-1.6875-2.082-1.6875c-1.1523 0-2.082 0.75781-2.082 1.6875 0 0.93359 0.93359 1.6875 2.082 1.6875zm0.5-2.8984c0.4375 0 0.79297 0.28906 0.79297 0.64062 0 0.35156-0.35547 0.64063-0.79297 0.64063s-0.79297-0.28906-0.79297-0.64063c0-0.35156 0.35547-0.64062 0.79297-0.64062z"/></svg>