<svg xmlns="http://www.w3.org/2000/svg" xmlns:xlink="http://www.w3.org/1999/xlink" version="1.1" x="0px" y="0px" viewBox="0 0 100 125" enable-background="new 0 0 100 100" xml:space="preserve"><path d="M97.4,55.8c-3.1-3-4.8-6.7-5.2-10.9c-0.2-1.8-0.2-3.7-0.5-5.5c-0.6-3.6-2.4-6.3-5.7-8c-3.9-2-7.9-3.8-11.9-5.8  c-0.4-0.2-0.7-0.6-1-1c-1.1-1.8-2.1-3.7-3.4-5.3c-5.4-6.6-14.1-7.1-20.3-1.3c-1.9,1.8-3.4,4-4.7,6.4c-0.2,0.4-0.4,0.7-1,0.8  c-4.5,0.5-7.9,3.7-8.7,8.1c-0.1,0.5-0.3,0.8-0.8,1c-1.3,0.5-2.7,0.3-3.9-0.2c-2.7-1.2-4.3-3.4-5.1-6.1c-0.8-2.7-1.4-5.4-1.9-8.2  c-0.4-1.8-0.7-3.7-1-5.5c1.3-0.8,1.8-1.6,1.6-2.6c-0.2-1-0.9-1.7-1.8-1.8c-1.5-0.2-2.1,0.8-2.5,2c-0.5-0.2-0.8-0.3-1.2-0.5  c-1.9-0.7-3.9-0.9-5.6,0.4c-1.2,0.9-2.5,1.2-3.9,1c-0.3,0-0.7,0-1,0C6.3,12.5,5,13,4,14.3c-0.2,0.2-0.4,0.5-0.7,0.6  c-1,0.4-1.2,1.3-1.3,2.2c-0.1,0.7,0,1.2,0.7,1.6c0.1,0.1,0.3,0.3,0.3,0.4c-0.2,0.6,0.2,0.6,0.6,0.7c1.2,0.3,2.4,0.4,3.5-0.2  c1.1-0.6,1.9-0.3,2.8,0.3c1.3,0.8,2.6,1.7,4,2.3c1,0.4,1.3,1,1.3,2c0.1,4,0.4,7.9,1.7,11.7c2.5,7.5,8.7,12.2,16.5,12.5  c1.2,0,2.3,0,3.5,0c0,0.2,0,0.3,0,0.5c0.1,4.6,0.2,9.2,0.4,13.8c0.1,1.3,0.1,2.4-0.7,3.6c-0.9,1.4-0.9,2.8-0.1,4.3  c0.3,0.5,0.6,1.1,0.8,1.6c0.1,0.2,0.2,0.5,0.2,0.8c0,3.1-0.1,6.1-0.1,9.2c0,1.8-0.7,3.3-2.1,4.6c-1,1-1.9,2.1-2.9,3.2  c3.6,0,6.9,0,10.4,0c-0.5-0.6-0.9-1.1-1.3-1.5c-1.4-1.5-2-3.2-1.8-5.2c0.2-2.3,0.2-4.6,0.4-6.8c0.2-1.8-0.1-3.7,1-5.3  c1.1-1.6,1.1-3.3,0.2-5c-0.2-0.4-0.4-0.8-0.3-1.2c0.4-1.8,1-3.5,1.5-5.4c0.4,1.5,0.8,2.9,1.2,4.2c0.3,1,0.4,1.9,0,2.9  c-0.6,1.6-0.4,3.2,0.7,4.6c0.3,0.4,0.5,0.7,0.7,1.1c0.2,0.4,0.4,0.9,0.6,1.4c0.7,3,1.3,6,2,9.1c0.1,0.4,0.2,0.9,0.1,1.3  c-0.3,0.8-0.7,1.7-1.3,2.4c-0.9,1.2-1.9,2.2-3,3.4c3.6,0,7,0,10.7,0c-0.6-0.6-1-1.2-1.5-1.6c-1.3-1.3-2.2-2.9-2.5-4.8  c-0.5-2.9-1-5.8-1.5-8.8c-0.2-1.3-0.5-2.7,0.2-4c0.9-1.8,0.7-3.6-0.5-5.2c-0.2-0.3-0.4-0.7-0.4-1c-0.2-3.7-0.4-7.5-0.6-11.2  c-0.1-1.1-0.2-2.2-0.3-3.4c0.8,0.2,1.5,0.4,2.2,0.6c6.7,1.7,13.5,1.9,20.4,0.7c0.6-0.1,0.8,0.1,1.1,0.5c2.9,4.4,4.8,9.3,6.6,14.2  c0.2,0.5,0.2,0.9-0.2,1.3c-0.9,1.2-1.2,2.6-0.8,4.1c0.2,1,0.3,2,0.1,3c-0.6,2.3-1.4,4.6-2.2,6.9c-0.8,2.3-2,4.3-4.1,5.7  c-1.1,0.8-1.9,1.9-2.9,3.1c3.6,0,6.8,0,10.2,0c-0.1-0.2-0.1-0.3-0.1-0.3c-0.2-0.3-0.4-0.6-0.6-0.9c-1.5-1.9-1.5-3.8-0.6-6  c0.8-1.8,1.5-3.6,2.2-5.5c0.7-2,1.4-3.9,3.1-5.4c1.1-0.9,1.1-2.3,0.7-3.6c-0.3-1.1-0.7-2.3-0.8-3.4c-0.3-2.3-0.6-4.6-0.9-6.9  c0.1,0,0.2,0,0.2,0.1c2.1,2.6,4.1,5.1,6.2,7.7c0.2,0.2,0.3,0.7,0.2,1c-0.4,1.9,0,3.6,1.1,5.2c0.3,0.4,0.6,0.9,0.7,1.4  c0.3,2.8,0.5,5.7,0.9,8.5c0.3,2.1-0.5,3.7-2,5.1c-1,0.9-1.8,2-2.8,3.1c3.6,0,7,0,10.5,0c-0.6-0.6-1-1.2-1.5-1.7  c-1.1-1.2-1.7-2.6-1.7-4.2c-0.1-2.6-0.3-5.3-0.4-7.9c-0.1-2-0.3-3.9,0.8-5.8c0.8-1.4,0.5-2.9-0.5-4.1c-0.4-0.5-0.9-1.1-1.1-1.7  c-0.7-1.8-1.5-3.6-2-5.5c-1.1-4-1.2-8.2-1.5-12.3c-0.2-3-0.5-6-1-8.9c-0.3-1.7-1-3.2-1.6-4.9c0.5,0.3,1,0.6,1.4,0.9  c2.5,1.9,3.3,4.5,3.5,7.4c0.2,2.5,0.3,5,0.7,7.5c0.4,3.2,1.5,6.3,3.6,8.9c1.6,1.9,1,1.6,3.1,0.8c0.1-0.1,0.3-0.1,0.4-0.2  c0.1-0.1,0.3-0.2,0.3-0.3C98,57.3,98.2,56.5,97.4,55.8z"/></svg>