<svg xmlns="http://www.w3.org/2000/svg" xmlns:xlink="http://www.w3.org/1999/xlink" version="1.1" x="0px" y="0px" viewBox="0 0 100 125" style="enable-background:new 0 0 100 100;" xml:space="preserve"><style type="text/css">
	.st0{fill-rule:evenodd;clip-rule:evenodd;}
</style><path class="st0" d="M26.72,34.43c0.17-1.63,0.94-3.61,2.54-2.02c-0.78,0.13-0.32,1.05-1.5,0.74c-0.37-0.1-0.74,0.37-0.94,1.27  c-0.04,0.2-0.08,0.42-0.1,0.66c-0.01,0.1-0.02,0.21-0.02,0.32c-0.01-0.1-0.01-0.21-0.01-0.32C26.68,34.88,26.69,34.66,26.72,34.43  L26.72,34.43z M36.73,17.61c-0.46-5.69-1.01-8.91-1.64-9.67c0.32,4.44,0.46,7.97,0.43,10.6c-1.13,0.85-2.41,1.77-3.84,2.74  c-1.3,1.08-2.18,1.28-2.62,0.61c-0.53-3.84-0.85-6.64-0.97-8.39c-0.2,2.55-0.26,5.38-0.19,8.49c-0.02,1.1-0.46,2.57-1.32,4.42  c-0.69-0.01-1.18,0.47-2,0.68c-0.14,0.04-0.29,0.06-0.46,0.08c-0.16-0.02-0.32-0.04-0.46-0.08c-0.82-0.21-1.31-0.69-2-0.68  c-0.86-1.85-1.3-3.32-1.32-4.42c0.07-3.11,0.01-5.94-0.19-8.49c-0.12,1.75-0.44,4.55-0.97,8.39c-0.44,0.67-1.32,0.47-2.62-0.61  c-1.43-0.98-2.71-1.89-3.84-2.74c-0.03-2.63,0.11-6.16,0.43-10.6c-0.63,0.76-1.18,3.99-1.64,9.67c-0.9-0.71-1.68-1.37-2.35-1.98  c-0.13-0.26-0.25-0.6-0.33-1.02c0.29-1.2,1.11-2.6,2.46-4.21c-1.15,0.26-2.05,0.77-2.71,1.53C8.62,7.66,9.07,4.52,9.93,2.5  C8.26,3.73,7.44,5.8,7.46,8.71c-0.25,2.84-0.3,4.98-0.15,6.41c0.13,1.24,0.4,1.95,0.83,2.13c3.42,2.78,6.16,4.77,8.2,5.97  c1.38,1.14,2.38,2.52,3.01,4.13c0.04,0.11,0.09,0.22,0.13,0.34c-0.13-0.03-0.26-0.07-0.39-0.11c-0.88-0.29-1.56-0.82-2.05-1.6  c-1.45-1.83-3.52-2.69-6.21-2.57c-0.42,1.78,0.12,3.72,1.63,5.8c1.58,2.03,3.58,1.59,4.86,2.2c0.25,0.12,0.47,0.28,0.66,0.5  c0.03,0.46,0.1,0.95,0.21,1.45c0.05,0.86,0.2,1.62,0.47,2.28c0.1,0.24,0.21,0.46,0.33,0.67c0.14,0.23,0.29,0.45,0.47,0.64  c0.1,0.12,0.21,0.23,0.33,0.34c0.06,1.56,1.06,3.64,2.43,4.81c-1.63-0.95-2.83-2.77-2.91-4.37c-0.06-0.05-0.11-0.09-0.17-0.14  c-0.25-0.23-0.48-0.48-0.67-0.75c0.09,5.46-0.08,20.79,3.72,27.45c0.42,0.75,0.85,1.45,1.29,2.1c2.06,3.05,4.38,5.09,6.91,6.4  c0.12,0.06,0.25,0.13,0.37,0.19c0.42,0.29,0.78,0.7,1.09,1.23c0.72,1.19,1.19,2.92,1.48,4.93c0.77,5.32,0.27,12.56-0.25,16.6  c-0.6-0.03-1.29,1.3-1.32,1.76h4.44c-0.27-1.05-0.13-3.55,0.15-6.4c0.44-4.39,1.24-9.59,1.48-11.59c0.2-1.5,0.5-2.82,0.87-4.03  c0.07-0.23,0.14-0.45,0.22-0.67c0.08-0.23,0.16-0.45,0.24-0.67c0.72-1.94,1.6-3.64,2.46-5.44c-0.66,1.83-1.32,3.58-1.89,5.45  c-0.07,0.22-0.13,0.45-0.2,0.67c4.26,0.04,8.86-0.81,13.66-1.71c3.01-0.56,6.11-1.15,9.25-1.54c1.02,0.17,2.07,0.51,3.14,1.01  c1.7,0.8,3.45,2.03,5.27,3.69c3.61,2.99,6.49,4.91,8.66,5.74c3.22,2.06,5.71,4.88,7.45,8.45c0.96,1.59,2.17,4.14,2.37,5.33  c-0.53,0.41-0.81,1.04-0.87,1.71h4.3c-1.5-3.65-4.1-9.71-6.05-13.94c0.16-2.28-0.47-3.99-1.87-5.12c-2.23-1.2-3.94-2.5-5.12-3.91  c-1.76-2.37-2.5-5.51-2.22-9.4c0.64-3.4,0-6.55-1.92-9.45c-0.09-0.14-0.18-0.28-0.27-0.41c0.47,0.2,0.88,0.43,1.22,0.69  c3.39,2.53,1.41,7.65,4.62,9.43c0.93,0.52,1.46,0.63,1.14,0.1c-1.29-2.77,0.74-4.72-0.77-8.72c-1.74-3.54-4.68-5.14-8.83-4.82  c-0.37,0.03-0.74,0.07-1.13,0.13c-4.38-2.2-11.31-2.33-20.79-0.41c-6.52-0.03-11.28-1.2-17.09-4.63c0.09,0.31,0.2,0.63,0.31,0.95  c0.6,1.68,1.47,3.35,2.63,4.69c-1.71-1.42-2.9-3.28-3.73-5.33c-0.29-0.73-0.54-1.48-0.76-2.24c-0.93-2.4-1.65-6.37-2.34-8.38  c-0.14,0.22-0.3,0.42-0.48,0.6c-0.13,0.14-0.28,0.27-0.43,0.4c-0.07,1.6-1.27,3.42-2.91,4.37c1.38-1.18,2.37-3.25,2.43-4.81  c0.25-0.23,0.46-0.48,0.65-0.76c0.14-0.2,0.26-0.42,0.37-0.66c0.11-0.23,0.2-0.46,0.27-0.72c0.16-0.54,0.26-1.14,0.3-1.8  c0.12-0.51,0.19-0.99,0.21-1.45c0.19-0.23,0.41-0.39,0.66-0.5c1.28-0.61,3.28-0.17,4.86-2.2c1.5-2.08,2.04-4.01,1.63-5.8  c-2.69-0.12-4.76,0.74-6.21,2.57c-0.48,0.78-1.16,1.31-2.05,1.6c-0.13,0.04-0.26,0.08-0.39,0.11c0.04-0.11,0.08-0.23,0.13-0.34  c0.63-1.61,1.64-2.99,3.01-4.13c2.04-1.2,4.78-3.18,8.2-5.97c0.42-0.18,0.7-0.89,0.83-2.13c0.15-1.43,0.1-3.57-0.15-6.41  c0.02-2.91-0.81-4.98-2.47-6.21c0.86,2.01,1.32,5.16,1.36,9.42c-0.66-0.75-1.56-1.26-2.71-1.53c1.35,1.6,2.17,3.01,2.46,4.21  c-0.09,0.42-0.2,0.76-0.33,1.02C38.41,16.24,37.63,16.9,36.73,17.61L36.73,17.61z M19.47,27.68C19.48,27.68,19.48,27.68,19.47,27.68  C19.48,27.69,19.48,27.69,19.47,27.68C19.48,27.69,19.48,27.69,19.47,27.68L19.47,27.68z M24.12,36.28c0.3,0.01,0.53,0.23,0.7,0.4  c0.17,0.29,0.48,0.38,0.94,0.52c0.21,0.28-0.26,0.62-0.67,1.02c-0.3,0.24-0.29,0.49,0.01,0.73c0.17,0.04,0.75,0.06,1.01,0.05  c0.08,0.43-0.88,1-1.99,1.2c-1.11-0.2-2.07-0.77-1.99-1.2c0.26,0.01,0.85-0.01,1.01-0.05c0.3-0.24,0.31-0.48,0.01-0.73  c-0.41-0.4-0.88-0.74-0.67-1.02c0.46-0.14,0.77-0.23,0.94-0.52C23.59,36.5,23.82,36.28,24.12,36.28L24.12,36.28z M18.98,32.41  c1.9-1.9,2.63,1.27,2.57,2.89c0,0.04,0,0.07-0.01,0.11c0-0.04,0-0.07-0.01-0.11c-0.1-1.47-0.59-2.27-1.06-2.15  C19.3,33.46,19.76,32.54,18.98,32.41L18.98,32.41z M28.76,27.68C28.76,27.69,28.76,27.69,28.76,27.68  C28.76,27.69,28.76,27.69,28.76,27.68C28.76,27.68,28.76,27.68,28.76,27.68L28.76,27.68z M29.71,73.21  c-1.94,1.05-3.57,0.75-5.78,2.38c-1.28,2.14,2.86,11,6.99,13.07c-0.36,0.88-1.12,2.53-1.46,3.66c-1.1-0.17-1.33-1.54-1.54-2.08  c-3.47-3.66-5.96-9.62-7.7-12.84c-2.12-3.39,2.75-4.95,3.23-9.9C25.35,70.13,27.45,71.97,29.71,73.21L29.71,73.21z M62.45,72.24  c1.03,0.18,2.1,0.55,3.19,1.1c0.21,2.31,1.35,4.27,3.41,5.89c2.07,1.82,3.14,3.19,3.2,4.12c0.42,3.19-6.16,7.57-6.17,14.15h-4.4  c-0.02-1.08,1.09-1.59,1.66-1.82c0.65-2.19,1.56-5.25,2.46-6.67c1.14-2.74,0.44-4.86-0.46-5.5c-2.69-1.61-5.47-3.61-7.83-6.49  c-1.42-1.39-2.63-2.51-3.63-3.36C56.69,73.14,59.57,72.61,62.45,72.24z"/></svg>