<svg xmlns="http://www.w3.org/2000/svg" version="1.1" viewBox="-5.0 -10.0 110.0 135.0">
 <path d="m42.43 29.207c-10.805-0.11719-21.711 5.6992-21.758 22.656 0 0-11.039 0.69922-11.039 7.457 0 0-1.3242 10.629 20.91 11.48 1.1484-0.30859 0-1.0703 0-1.0703-17.82-2.8594-17.281-9.4688-17.281-9.4688 0-3.8398 8.6211-3.5938 8.6211-3.5938h64.707c3.4688 0 5.0469-2.8242 2.6094-4.2305-3.4844-2.0117-6.543-12.883-16.102-12.883 1.5859-2.7422 0.58594-6.7305-3.8555-7.1992-2.1562-0.23047-6.8594 0.63672-5.0742 7.3008-0.62891 0.16797-0.84375-0.5625-1.8633-1.8555-3.1289-4.8164-11.473-8.4961-19.875-8.5859zm33.852 14.977c1 0 1.8086 0.79688 1.8086 1.7773 0 0.98047-0.80859 1.7773-1.8086 1.7773s-1.8086-0.79688-1.8086-1.7773c0-0.98047 0.80859-1.7773 1.8086-1.7773z"/>
</svg>