<svg xmlns="http://www.w3.org/2000/svg" version="1.1" viewBox="-5.0 -10.0 110.0 135.0">
 <path d="m3.2148 47.098c0 2.75 1.543 5.1602 4.0273 6.293 0.48047 0.21875 0.64844 0.82812 0.33594 1.2656-1.582 2.2227-1.7148 5.082-0.33984 7.4609 1.375 2.3828 3.9141 3.6992 6.6328 3.4375 0.52734-0.050782 0.97266 0.39844 0.92188 0.92578-0.26172 2.7148 1.0547 5.2578 3.4375 6.6328 2.3828 1.375 5.2383 1.2422 7.4609-0.33984 0.43359-0.30859 1.043-0.14844 1.2617 0.33984 2.4258 5.3594 10.16 5.3594 12.586 0 0.21875-0.48828 0.82813-0.64844 1.2617-0.33984 2.5039 1.7852 5.9375 1.6914 8.3398-0.23438 0.30859-0.24609 0.75-0.24609 1.0586 0 2.4062 1.9258 5.8359 2.0234 8.3438 0.23438 0.43359-0.30859 1.0391-0.14844 1.2617 0.33984 1.1211 2.457 3.5898 4.0469 6.293 4.0469s5.1719-1.5898 6.293-4.0469c0.22266-0.48438 0.82812-0.64844 1.2617-0.33984 2.2227 1.582 5.082 1.7148 7.4609 0.33984 2.3828-1.375 3.6992-3.918 3.4375-6.6328-0.050781-0.52734 0.39453-0.97656 0.92188-0.92578 2.7188 0.26172 5.2578-1.0547 6.6328-3.4375 1.375-2.3789 1.2422-5.2383-0.33984-7.4609-0.30469-0.42969-0.14844-1.0391 0.33984-1.2656 2.8047-1.2773 4.3633-3.1914 4.6367-5.6953 0.31641-2.8789-1.2266-5.9648-2.9727-7.4531-2.9805 0.30469-5.6133-0.51563-7.8398-2.6328-2.3047 9.4922-9.3789 16.418-17.727 16.418s-15.426-6.9297-17.73-16.418c-2.5234 2.3984-5.5391 3.0977-8.8672 2.4883-0.38672-0.070312-0.67188-0.39453-0.69141-0.78906-0.37891-7.0781 2.1172-11.758 7.4219-13.949-2.0195-1.1836-3.0703-3.3281-3.2461-5.7852-2.4219-0.83594-5.75 0.8125-7.543 1.8906-0.375 0.22656-0.86719 0.12891-1.125-0.23047-2.8438-3.9492-10.438-1.6719-11.961 1.5273-0.22656 0.47656-0.82813 0.62891-1.2539 0.32812-2.1328-1.5234-4.5898-1.75-6.5703-0.60547-2.1406 1.2344-3.3008 3.7891-3.0234 6.6602 0.050781 0.52734-0.39453 0.97266-0.92188 0.92578-2.6992-0.26172-4.7656 0.59766-5.8164 2.4219-1.1562 2-0.87109 4.8359 0.71094 7.0547 0.3125 0.43359 0.14453 1.0391-0.33594 1.2617-2.4922 1.1289-4.0352 3.5391-4.0352 6.2891zm20.277 38.664c-0.003907 0.089843 0.011718 0.17969 0.035156 0.26562 0.42578 1.4219 0.42969 0.66016 0.40625 1.5312-0.023438 0.80469-0.41016 1.3398-0.65234 1.3398h-5.8164c-0.26172 0-0.65625-0.55469-0.65625-1.3164 0-0.20312 0.003906-0.32812 0.007812-0.40234 0-0.003907 0.61328-0.75781 0.61719-1.3047l0.035156-11.254c1.957 1.1016 4.1641 1.3906 6.2305 0.89062zm15.773 0.11328c0 0.10156 0.019531 0.19922 0.054687 0.29688 0.51563 1.3789 0.57031 0.55078 0.57031 1.4141 0 0.76172-0.39062 1.3164-0.65234 1.3164h-5.8125c-0.24609 0-0.63281-0.53516-0.65234-1.3398l-0.011719-0.45312s0.46484-0.94531 0.45312-1.3477l-0.14453-6.9453c2.4297 0 4.5-0.76953 6.168-2.3906zm21.973-0.11328c-0.003906 0.089843 0.011719 0.17969 0.035157 0.26562 0.42578 1.4219 0.42969 0.66016 0.40625 1.5312-0.023438 0.80469-0.41016 1.3398-0.65234 1.3398h-5.8164c-0.26172 0-0.65234-0.55469-0.65234-1.3164 0-0.20312 0.003906-0.32812 0.007812-0.40234 0-0.003907 0.61328-0.75781 0.61719-1.3047l0.03125-10.172c1.2109-0.09375 2.4062-0.44141 3.5-1.0469 0.68359 1.1367 1.6094 2.0859 2.6953 2.793zm15.742-10.043 0.03125 10.156c0 0.10156 0.019531 0.19922 0.054687 0.29688 0.51562 1.3789 0.57031 0.55078 0.57031 1.4141 0 0.76172-0.39062 1.3164-0.65234 1.3164h-5.8125c-0.24609 0-0.63281-0.53516-0.65234-1.3398l-0.011719-0.45312s0.46484-0.94922 0.45703-1.3477l-0.17188-8.3125c1.0859-0.70703 2.0117-1.6562 2.6953-2.7891 1.0898 0.61328 2.2852 0.96484 3.4922 1.0586zm9.7422-44.801c0-1.4727-0.11328-2.9336-0.33203-4.3672 5.1562 1.6719 7.5938 5.6094 7.4297 11.984-3.0117 0.375-5.4648-0.59766-7.4805-2.9492 0.25391-1.5117 0.38281-3.0703 0.38281-4.668zm-15.961 9.8438c-0.47656 1.2148-1.6523 2.5312-2.5586 3.0469-0.91016-0.51953-2.0859-1.8359-2.5625-3.0469 0.60156-0.40234 1.6992-0.78906 2.5625-0.78906 0.85938 0.003906 1.9531 0.38672 2.5586 0.78906zm5.8125-11.316c1.0273 0 1.8633 0.91797 1.8633 2.0469 0 1.1289-0.83594 2.0469-1.8633 2.0469-1.0273 0-1.8633-0.91797-1.8633-2.0469 0-1.1289 0.83594-2.0469 1.8633-2.0469zm-16.746-1.6953c1.9609 0 3.5586 1.6758 3.5586 3.7383s-1.5938 3.7422-3.5586 3.7422c-1.9609 0-3.5586-1.6758-3.5586-3.7422 0-2.0586 1.5977-3.7383 3.5586-3.7383zm-8.457 3.168c0-1.5586 0.13281-3.1133 0.39453-4.6211 2.7773 0.09375 4.4336-0.73828 5.7461-2.2656 2.918 3.0352 7.7773 3.0273 10.684-0.023438 2.9102 3.0508 7.7656 3.0625 10.688 0.023438 1.3164 1.5273 2.9688 2.3594 5.7461 2.2656 0.26172 1.5078 0.39453 3.0625 0.39453 4.6211 0 11.449-7.0938 20.828-15.98 21.391v-7.0352c1.4219-0.82422 3.0742-2.7539 3.5117-4.5898 0.0625-0.26562-0.007813-0.54297-0.18359-0.75-0.77344-0.89453-2.6836-1.6523-4.1719-1.6523-1.4922 0-3.4023 0.75781-4.1758 1.6523-0.17969 0.20703-0.24609 0.48438-0.18359 0.75 0.43359 1.8359 2.0898 3.7656 3.5117 4.5898v7.0352c-8.8867-0.56641-15.98-9.9453-15.98-21.391zm25.203 4.3125c-1.9609 0-3.5547-1.6758-3.5547-3.7422 0-2.0625 1.5938-3.7383 3.5547-3.7383 1.9609 0 3.5586 1.6758 3.5586 3.7383-0.003906 2.0664-1.5977 3.7422-3.5586 3.7422zm-16.746-5.7852c1.0273 0 1.8633 0.91797 1.8633 2.0469 0 1.1289-0.83594 2.0469-1.8633 2.0469s-1.8633-0.91797-1.8633-2.0469c0-1.1289 0.83594-2.0469 1.8633-2.0469zm-11.809-6.5469c-2.9531-3.6094-0.375-11.801 4.1211-11.801 2.4961 0 3.5312 0.81641 4.6602 2.4219 0.33594 0.48047 1.0469 0.48047 1.3828 0 2.2695-3.2188 7.0391-3.2305 9.3203 0 0.33984 0.48047 1.0508 0.47656 1.3867 0 2.2773-3.2266 7.043-3.2227 9.3203 0 0.16016 0.22266 0.41797 0.35938 0.69141 0.35938 1.2852 0 0.98438-2.7812 5.3555-2.7812 3.1719 0 5.3828 4.0703 5.3828 7.7266 0 3.418-1.793 5.7852-5.3828 5.7852-2.5 0-3.5312-0.81641-4.6602-2.4219-0.33594-0.48047-1.0469-0.47656-1.3828 0-2.2773 3.2227-7.043 3.2266-9.3203 0-0.33594-0.47656-1.0469-0.48047-1.3867 0-2.2812 3.2305-7.0508 3.2188-9.3203 0-0.16016-0.22266-0.41797-0.35938-0.69141-0.35938-1.2891 0-0.98438 2.7812-5.3516 2.7812-1.8086 0-3.1953-0.57422-4.125-1.7109zm1.9883 3.6523c-0.45703 2.9961-0.4375 6.0664 0.046876 9.0312-2.0117 2.3555-4.4688 3.3242-7.4805 2.9492-0.16016-6.375 2.2773-10.309 7.4336-11.98z" fill-rule="evenodd"/>
</svg>